# xmcd
#
# Track frame offsets: 
#        150
#        24127
#        26104
#        47603
#        65416
#        84792
#        102786
#        137479
#        163113
#        189434
#        219078
#        249435
#        290355
#
# Disc length: 4366 seconds
#
# Revision: 0
# Processed by: cddbd v1.5.2PL0 Copyright (c) Steve Scherf et al.
# Submitted via: ExactAudioCopy v0.99pb5
#
DISCID=9e110c0d
DTITLE=Peter Morrison - '99 At Home and Hotel Austin 09 MIA [CD 1) recor
DTITLE=ded by Evan Lauber
DYEAR=1999
DGENRE=Classic Rock
TTITLE0=like jesus christ ?
TTITLE1=pain in the ass intro
TTITLE2=paradise
TTITLE3=turn the key ?
TTITLE4=turn the key ? take 2 
TTITLE5=paradise take 2
TTITLE6=the rainbow
TTITLE7=shadows drifting away ?
TTITLE8=money (thats what i want) - beatles cover
TTITLE9=bleed like this ?
TTITLE10=Thank you - Led Zeppelin cover
TTITLE11=blues with marcus I
TTITLE12=blues with marcus II
EXTD=
EXTT0=
EXTT1=
EXTT2=
EXTT3=
EXTT4=
EXTT5=
EXTT6=
EXTT7=
EXTT8=
EXTT9=
EXTT10=
EXTT11=
EXTT12=
PLAYORDER=
